#define q16f_width 16
#define q16f_height 16
static unsigned char q16f_bits[] = {
0xf0,0x0f,0x0c,0x30,0x03,0xc0,0x03,0xc0,0x03,0xc0,0x03,0xc0,0x00,0x30,0x00,0x0c,0xc0,0x03,0xc0,0x00,0xc0,0x00,0xc0,0x00,0xc0,0x00,0x00,0x00,0xc0,0x00,0xc0,0x00
};
