#define q16H_width 8
#define q16H_height 16
static unsigned char q16H_bits[] = {
0x00,0x18,0x24,0x42,0x42,0x42,0x20,0x10,0x08,0x08,0x08,0x08,0x00,0x08,0x08,0x00
};
